# xmcd
#
# Track frame offsets: 
#        150
#        15190
#        29902
#        60707
#        74532
#        87972
#        102967
#        115082
#        129875
#        142872
#        158522
#        173582
#        186405
#        195895
#        209242
#        222630
#        240810
#        256082
#
# Disc length: 3757 seconds
#
# Revision: 2
# Processed by: cddbd v1.5.2PL0 Copyright (c) Steve Scherf et al.
# Submitted via: ExactAudioCopyFreeDBPlugin 1.0
#
DISCID=f20eab12
DTITLE=Spencer Davis Group - With Their New Face On
DYEAR=1900
DGENRE=Rock
TTITLE0=With His New Face On
TTITLE1=Mr. Second Class
TTITLE2=Alec In Transitland
TTITLE3=Sanity Inspector
TTITLE4=Feel Your Way
TTITLE5=Morning Sun
TTITLE6=Moonshine
TTITLE7=Don´t Want You No More
TTITLE8=Time Seller
TTITLE9=Stop Me, I'm Falling
TTITLE10=After Tea
TTITLE11=Aquarius Der Wassermann
TTITLE12=Let The Sunshine In
TTITLE13=Feel Your Way (Backing Track featuring Phil Sawyer on Guitar 
TTITLE13=)
TTITLE14=I'm Lost
TTITLE15=Pools Winner (Backing Track)
TTITLE16=Morning Sun (Rough Mix, featuring Phil Sawyer on Vocals)
TTITLE17=Spencer Davis Radio Interview
EXTD=
EXTT0=
EXTT1=
EXTT2=
EXTT3=
EXTT4=
EXTT5=
EXTT6=
EXTT7=
EXTT8=
EXTT9=
EXTT10=
EXTT11=
EXTT12=
EXTT13=
EXTT14=
EXTT15=
EXTT16=
EXTT17=
PLAYORDER=
